<?xml version="1.0" standalone="no"?>
<!DOCTYPE svg PUBLIC "-//W3C//DTD SVG 20010904//EN"
 "http://www.w3.org/TR/2001/REC-SVG-20010904/DTD/svg10.dtd">
<svg version="1.0" xmlns="http://www.w3.org/2000/svg"
 width="252.000000pt" height="252.000000pt" viewBox="0 0 252.000000 252.000000"
 preserveAspectRatio="xMidYMid meet">
<metadata>
Created by potrace 1.14, written by Peter Selinger 2001-2017
</metadata>
<g transform="translate(0.000000,252.000000) scale(0.100000,-0.100000)"
fill="#000000" stroke="none">
<path d="M1170 2404 c-453 -42 -848 -358 -989 -792 -41 -126 -55 -220 -55
-367 2 -524 352 -978 859 -1110 252 -66 557 -34 790 82 213 107 411 306 519
521 126 252 151 588 64 862 -55 173 -146 327 -271 458 -56 57 -156 142 -170
142 -3 0 10 -31 28 -68 38 -78 83 -216 92 -279 3 -24 10 -43 15 -43 5 0 6 -4
3 -10 -3 -6 1 -7 9 -4 9 3 16 10 16 15 0 5 9 18 20 29 l21 21 14 -36 c46 -108
70 -281 56 -394 -19 -151 -75 -264 -177 -361 -155 -145 -353 -205 -729 -220
-233 -10 -285 -17 -381 -56 -36 -14 -68 -24 -70 -21 -3 2 7 7 21 11 14 4 25
13 25 21 0 9 8 12 21 10 17 -4 19 -2 9 10 -7 8 -11 15 -9 16 2 0 13 2 23 4 11
2 37 23 59 47 22 24 38 38 34 32 -3 -6 0 -11 8 -11 7 0 12 8 10 18 -2 10 3 20
11 23 9 4 12 2 8 -5 -3 -6 3 -5 15 3 12 7 24 21 27 30 2 9 22 27 42 39 l37 22
-32 9 c-50 13 -63 41 -63 130 0 63 3 78 15 78 8 0 15 5 15 10 0 16 -30 11 -37
-6 -5 -13 -7 -13 -14 -2 -6 9 -9 10 -9 1 0 -7 -6 -10 -14 -7 -7 3 -16 -2 -20
-12 -4 -11 -10 -13 -19 -6 -8 7 -16 6 -25 -4 -10 -11 -10 -14 2 -14 23 0 56
-50 56 -85 0 -39 -47 -85 -85 -85 -29 0 -85 46 -85 70 0 21 -23 43 -35 32 -5
-4 -5 -2 -1 5 4 8 -1 11 -14 10 -13 -1 -19 -6 -15 -15 3 -10 -1 -11 -16 -7
-14 5 -19 3 -15 -3 10 -16 -13 -25 -29 -12 -12 10 -15 10 -15 0 0 -7 -7 -10
-15 -6 -8 3 -15 1 -15 -4 0 -5 -9 -7 -20 -5 -12 2 -18 0 -15 -6 4 -5 10 -7 14
-5 4 3 13 0 21 -6 12 -8 12 -9 -2 -4 -11 3 -18 0 -18 -7 0 -8 -3 -8 -9 2 -11
16 -34 5 -24 -12 4 -7 0 -6 -10 2 -14 11 -18 11 -23 -2 -4 -11 -15 -15 -35
-12 -22 3 -37 -4 -61 -28 -18 -18 -28 -25 -24 -17 5 10 3 10 -6 -2 -9 -10 -23
-14 -41 -11 -26 5 -27 8 -27 62 0 136 109 249 287 297 36 9 139 19 268 24 198
9 259 15 380 41 58 13 172 52 215 74 17 9 30 12 30 8 0 -5 6 -1 13 7 7 8 20
21 29 28 14 11 18 10 28 -9 7 -12 8 -19 2 -15 -6 3 -13 0 -15 -6 -4 -9 -6 -9
-6 1 -1 10 -8 8 -26 -9 -13 -12 -22 -27 -18 -33 3 -6 1 -7 -5 -3 -6 4 -8 14
-5 24 6 15 4 15 -15 -2 -12 -10 -19 -22 -17 -27 3 -4 -6 -6 -20 -3 -17 3 -25
0 -25 -10 0 -8 -4 -17 -9 -20 -5 -4 -7 3 -4 15 5 19 4 20 -15 8 -13 -8 -18
-17 -12 -24 5 -7 -4 -10 -30 -9 -25 1 -41 -3 -44 -12 -3 -8 -12 -11 -22 -7
-13 5 -16 3 -11 -10 3 -9 2 -17 -3 -17 -6 0 -10 5 -10 10 0 6 -5 10 -11 10 -5
0 -7 -4 -4 -10 3 -5 1 -10 -5 -10 -13 0 -41 -26 -35 -32 2 -2 -6 -4 -18 -5
-12 0 -16 1 -9 4 6 3 10 9 7 13 -9 14 -34 0 -29 -15 3 -7 0 -16 -7 -21 -7 -4
-10 -3 -5 4 3 6 2 13 -4 17 -5 3 -10 1 -10 -5 0 -6 -5 -8 -12 -4 -8 5 -7 0 2
-11 14 -17 13 -18 -13 -11 -18 4 -26 3 -23 -3 7 -11 -13 -9 -31 2 -8 5 -13 3
-13 -5 0 -9 -3 -9 -10 2 -5 8 -10 10 -10 4 0 -7 -12 -15 -26 -18 -15 -4 -24
-9 -22 -12 3 -2 16 0 30 5 15 5 30 6 39 0 10 -6 10 -9 2 -9 -21 0 -18 -164 3
-181 11 -9 20 -10 32 -2 13 8 18 28 20 85 2 66 5 77 22 81 19 5 20 0 20 -79 0
-46 3 -84 6 -84 4 0 15 9 25 21 14 16 17 32 13 74 -5 47 -3 55 15 65 20 10 21
9 21 -60 0 -63 2 -70 20 -70 18 0 20 7 20 65 0 60 2 65 21 65 20 0 21 -4 16
-61 -4 -52 -3 -60 11 -57 13 2 18 16 20 58 3 52 16 75 35 63 4 -3 6 -25 2 -49
-3 -25 -3 -49 0 -54 5 -8 143 24 154 36 3 2 -2 12 -11 21 -20 19 -48 11 -55
-17 -5 -20 -43 -29 -43 -10 0 23 24 59 47 69 32 15 62 6 89 -25 l20 -25 60 31
c133 70 228 171 279 298 20 49 47 185 29 144 -5 -10 -9 -10 -21 -1 -11 10 -14
10 -11 -2 2 -9 -5 -14 -19 -13 -12 0 -20 -3 -17 -8 3 -4 -2 -11 -10 -14 -9 -3
-13 -11 -9 -18 4 -6 -1 -5 -10 3 -16 12 -22 8 -18 -13 1 -5 -10 -6 -24 -4 -14
3 -25 2 -25 -2 0 -5 -9 -6 -20 -3 -12 3 -20 0 -20 -6 0 -7 -4 -9 -10 -6 -5 3
-10 1 -10 -5 0 -7 -7 -9 -15 -6 -10 4 -19 -2 -25 -17 -5 -12 -9 -16 -9 -9 -1
6 -6 12 -12 12 -5 0 -8 -4 -4 -9 3 -5 1 -12 -5 -16 -5 -3 -10 -1 -10 6 0 8 -5
7 -12 -4 -11 -14 -15 -14 -32 -2 -17 13 -15 17 33 64 96 95 161 221 177 347 7
58 -8 170 -34 247 -16 48 -22 55 -77 84 -156 83 -418 133 -605 117z m-596
-1352 c3 -5 -1 -9 -9 -9 -8 0 -12 4 -9 9 3 4 7 8 9 8 2 0 6 -4 9 -8z m-39 -30
c-3 -3 -11 0 -18 7 -9 10 -8 11 6 5 10 -3 15 -9 12 -12z m260 -503 c28 -10 84
-21 125 -26 l74 -8 73 -130 73 -130 -45 -3 c-51 -4 -150 19 -211 48 -100 49
-174 150 -174 238 0 38 2 43 18 37 9 -5 40 -16 67 -26z"/>
<path d="M830 1187 c0 -22 26 -39 50 -32 16 5 20 2 20 -17 0 -30 17 -48 45
-48 27 0 45 18 45 47 0 26 -30 48 -77 58 -28 5 -33 4 -33 -12 0 -15 -2 -16
-10 -3 -5 8 -10 11 -10 6 0 -5 -7 -3 -15 4 -12 10 -15 10 -15 -3z"/>
</g>
</svg>
