<svg width="270" height="172" viewBox="0 0 270 172" fill="none" xmlns="http://www.w3.org/2000/svg">
<path d="M176.22 53.8385C205.905 48.4235 232.237 15.3389 236.939 0.000122102C240.516 16.3466 236.554 38.352 233.847 47.6935C215.109 112.366 61.6146 114.516 37.2002 92.178C28.9086 84.5916 26.1575 65.0282 39.007 56.2352C53.1023 46.5897 74.5807 49.6762 89.5603 52.1982C132.241 59.3841 139.114 60.6073 176.22 53.8385Z" fill="url(#paint0_linear_103_25)"/>
<rect y="35" width="270" height="101" rx="50.5" fill="#40356F"/>
<path d="M176.22 53.8385C205.905 48.4235 232.237 15.3389 236.939 0.000122102C240.516 16.3466 236.554 38.352 233.847 47.6935C215.109 112.366 61.6146 114.516 37.2002 92.178C28.9086 84.5916 26.1575 65.0282 39.007 56.2352C53.1023 46.5897 74.5807 49.6762 89.5603 52.1982C132.241 59.3841 139.114 60.6073 176.22 53.8385Z" fill="url(#paint1_linear_103_25)" fill-opacity="0.8"/>
<path d="M185.387 83.3009C211.993 71.6067 235.301 28.9 236.939 3.20905e-08C243.457 30.9888 237.953 68.5962 235.225 78.0012C216.341 143.112 61.9219 145.528 37.5475 123.07C29.2694 115.443 26.8673 100.049 39.7402 91.186C50.9375 83.4765 75.0325 80.2538 90.0118 82.7769C132.691 89.9657 159.548 94.6576 185.387 83.3009Z" fill="url(#paint2_linear_103_25)" fill-opacity="0.8"/>
<path d="M202.721 108.335C229.063 95.4477 235.013 43.3099 239.705 28C240.326 71.2988 235.961 108.47 232.806 117.626C211.545 179.324 58.3748 175.984 42.4214 166.133C29.3308 158.05 24.8962 141.795 37.4413 130.449C53.2371 119.814 72.6884 119.652 87.6681 122.174C130.349 129.359 179.403 119.743 202.721 108.335Z" fill="url(#paint3_linear_103_25)"/>
<path d="M80.0731 108C76.6063 108 73.5368 107.249 70.8646 105.748C68.2284 104.246 66.3506 102.251 65.2311 99.7603C64.9422 99.1744 64.9242 98.6434 65.1769 98.1673C65.4658 97.6546 65.9353 97.3067 66.5853 97.1236C67.0909 96.9771 67.5784 97.032 68.0478 97.2884C68.5534 97.5447 68.9326 97.9293 69.1854 98.4419C70.0159 100.053 71.3882 101.372 73.3021 102.397C75.216 103.422 77.473 103.935 80.0731 103.935C82.9259 103.935 85.2732 103.239 87.1149 101.848C88.9927 100.419 89.9316 98.3687 89.9316 95.6954C89.9316 93.4615 89.1191 91.5389 87.4941 89.9276C85.869 88.3163 83.3231 87.2909 79.8564 86.8514C75.6313 86.3387 72.3271 85.0204 69.9437 82.8964C67.5603 80.7357 66.3686 78.099 66.3686 74.9863C66.3686 72.7524 66.9464 70.8115 68.102 69.1635C69.2937 67.5156 70.9187 66.2522 72.9771 65.3733C75.0355 64.4578 77.4008 64 80.0731 64C83.0704 64 85.6343 64.6958 87.7649 66.0874C89.8955 67.4424 91.5386 69.0537 92.6942 70.9213C93.0553 71.5073 93.1636 72.0749 93.0192 72.6242C92.9108 73.1735 92.6039 73.5947 92.0983 73.8876C91.5566 74.144 90.9969 74.1806 90.4191 73.9975C89.8774 73.8144 89.4622 73.4665 89.1733 72.9538C88.3427 71.6721 87.2052 70.5551 85.7607 69.603C84.3523 68.6142 82.4384 68.1015 80.0189 68.0649C77.1661 68.0649 74.873 68.6875 73.1396 69.9326C71.4062 71.1411 70.5396 72.9172 70.5396 75.2609C70.5396 77.1286 71.2798 78.7582 72.7604 80.1498C74.2771 81.5414 76.9494 82.5119 80.7773 83.0612C85.2912 83.7203 88.6316 85.1303 90.7983 87.2909C93.0011 89.4149 94.1025 92.1981 94.1025 95.6404C94.1025 98.2772 93.4706 100.529 92.2067 102.397C90.9789 104.228 89.2997 105.62 87.1691 106.572C85.0385 107.524 82.6731 108 80.0731 108Z" fill="white"/>
<path d="M115.288 107.78C112.724 107.78 110.431 107.249 108.409 106.187C106.386 105.089 104.78 103.496 103.588 101.408C102.432 99.3208 101.854 96.7757 101.854 93.7728V79.4906C101.854 78.9047 102.053 78.4103 102.45 78.0075C102.848 77.6047 103.335 77.4032 103.913 77.4032C104.527 77.4032 105.032 77.6047 105.43 78.0075C105.827 78.4103 106.025 78.9047 106.025 79.4906V93.7728C106.025 97.1419 106.946 99.6504 108.788 101.298C110.63 102.946 112.941 103.77 115.721 103.77C117.491 103.77 119.08 103.422 120.488 102.727C121.933 102.031 123.07 101.079 123.901 99.8702C124.731 98.6617 125.147 97.2884 125.147 95.7503V79.4906C125.147 78.8681 125.327 78.3737 125.688 78.0075C126.085 77.6047 126.591 77.4032 127.205 77.4032C127.819 77.4032 128.324 77.6047 128.722 78.0075C129.119 78.3737 129.317 78.8681 129.317 79.4906V105.308C129.317 105.968 129.119 106.499 128.722 106.901C128.324 107.268 127.819 107.451 127.205 107.451C126.591 107.451 126.085 107.268 125.688 106.901C125.327 106.499 125.147 105.968 125.147 105.308V103.441C123.955 104.796 122.51 105.858 120.813 106.627C119.116 107.396 117.274 107.78 115.288 107.78Z" fill="white"/>
<path d="M144.132 107.451C143.12 107.451 142.452 106.993 142.127 106.077L133.677 80.3695C133.208 78.392 133.731 77.4032 135.248 77.4032C136.223 77.4032 136.909 77.9342 137.306 78.9963L144.24 100.419L150.632 79.0512C150.776 78.5751 151.011 78.1906 151.336 77.8976C151.697 77.568 152.148 77.4032 152.69 77.4032C153.737 77.4032 154.423 77.9526 154.748 79.0512L160.978 100.31L167.857 78.9963C168.218 77.9342 168.886 77.4032 169.861 77.4032C170.656 77.4032 171.197 77.7145 171.486 78.3371C171.775 78.923 171.775 79.6005 171.486 80.3695L163.036 106.077C162.747 106.993 162.097 107.451 161.086 107.451C160.617 107.451 160.183 107.323 159.786 107.066C159.425 106.81 159.19 106.48 159.082 106.077L152.582 84.2147L146.082 106.077C145.757 106.993 145.107 107.451 144.132 107.451Z" fill="white"/>
<path d="M189.508 107.725C186.727 107.725 184.236 107.066 182.033 105.748C179.83 104.393 178.079 102.562 176.779 100.255C175.515 97.9476 174.883 95.3475 174.883 92.4544C174.883 89.5248 175.533 86.9064 176.833 84.5992C178.169 82.2921 179.974 80.4794 182.25 79.161C184.525 77.8061 187.089 77.1286 189.941 77.1286C192.794 77.1286 195.34 77.8061 197.579 79.161C199.854 80.4794 201.642 82.2921 202.942 84.5992C204.278 86.9064 204.964 89.5248 205 92.4544V105.363C205 105.986 204.801 106.499 204.404 106.901C204.007 107.268 203.501 107.451 202.887 107.451C202.274 107.451 201.768 107.268 201.371 106.901C200.974 106.499 200.775 105.986 200.775 105.363V102.012C199.547 103.77 197.958 105.162 196.008 106.187C194.058 107.213 191.891 107.725 189.508 107.725ZM189.941 103.88C192.036 103.88 193.896 103.386 195.521 102.397C197.182 101.408 198.482 100.053 199.421 98.3321C200.396 96.5743 200.883 94.6151 200.883 92.4544C200.883 90.2572 200.396 88.298 199.421 86.5768C198.482 84.8556 197.182 83.5006 195.521 82.5119C193.896 81.4865 192.036 80.9738 189.941 80.9738C187.883 80.9738 186.023 81.4865 184.362 82.5119C182.701 83.5006 181.383 84.8556 180.408 86.5768C179.433 88.298 178.945 90.2572 178.945 92.4544C178.945 94.6151 179.433 96.5743 180.408 98.3321C181.383 100.053 182.701 101.408 184.362 102.397C186.023 103.386 187.883 103.88 189.941 103.88Z" fill="white"/>
<defs>
<linearGradient id="paint0_linear_103_25" x1="30.199" y1="78.8998" x2="231.911" y2="14.4108" gradientUnits="userSpaceOnUse">
<stop stop-color="#3824CB"/>
<stop offset="0.739583" stop-color="#7E48C3"/>
<stop offset="0.791667" stop-color="#663DBD"/>
<stop offset="1" stop-color="#5234B8"/>
</linearGradient>
<linearGradient id="paint1_linear_103_25" x1="30.199" y1="78.8998" x2="231.911" y2="14.4108" gradientUnits="userSpaceOnUse">
<stop stop-color="#3824CB"/>
<stop offset="0.739583" stop-color="#7E48C3"/>
<stop offset="0.791667" stop-color="#663DBD"/>
<stop offset="1" stop-color="#5234B8"/>
</linearGradient>
<linearGradient id="paint2_linear_103_25" x1="30.5727" y1="109.713" x2="232.885" y2="45.8406" gradientUnits="userSpaceOnUse">
<stop stop-color="#7142BF"/>
<stop offset="0.390625" stop-color="#9F2DCA"/>
<stop offset="1" stop-color="#472EB4"/>
</linearGradient>
<linearGradient id="paint3_linear_103_25" x1="28.3281" y1="148.811" x2="245.305" y2="137.445" gradientUnits="userSpaceOnUse">
<stop stop-color="#4E32B6"/>
<stop offset="0.5" stop-color="#683DBD"/>
<stop offset="1" stop-color="#9C55DF"/>
</linearGradient>
</defs>
</svg>
