<svg width="210" height="172" viewBox="0 0 210 172" fill="none" xmlns="http://www.w3.org/2000/svg">
<path d="M146.22 53.8385C175.905 48.4235 202.237 15.3389 206.939 0.000122102C210.516 16.3466 206.554 38.352 203.847 47.6935C185.109 112.366 31.6146 114.516 7.2002 92.178C-1.09137 84.5916 -3.84252 65.0282 9.00702 56.2352C23.1023 46.5897 44.5807 49.6762 59.5603 52.1982C102.241 59.3841 109.114 60.6073 146.22 53.8385Z" fill="url(#paint0_linear_124_2)"/>
<path d="M146.22 53.8385C175.905 48.4235 202.237 15.3389 206.939 0.000122102C210.516 16.3466 206.554 38.352 203.847 47.6935C185.109 112.366 31.6146 114.516 7.2002 92.178C-1.09137 84.5916 -3.84252 65.0282 9.00702 56.2352C23.1023 46.5897 44.5807 49.6762 59.5603 52.1982C102.241 59.3841 109.114 60.6073 146.22 53.8385Z" fill="url(#paint1_linear_124_2)" fill-opacity="0.8"/>
<path d="M155.387 83.3009C181.993 71.6067 205.301 28.9 206.939 3.20905e-08C213.457 30.9888 207.953 68.5962 205.225 78.0012C186.341 143.112 31.9219 145.528 7.54745 123.07C-0.730554 115.443 -3.13271 100.049 9.7402 91.186C20.9375 83.4765 45.0325 80.2539 60.0118 82.7769C102.691 89.9657 129.548 94.6576 155.387 83.3009Z" fill="url(#paint2_linear_124_2)"/>
<path d="M172.721 108.335C199.063 95.4477 205.013 43.3099 209.705 28C210.326 71.2988 205.961 108.47 202.806 117.626C181.545 179.324 28.3748 175.984 12.4214 166.133C-0.669157 158.05 -5.10378 141.795 7.44126 130.449C23.2371 119.814 42.6884 119.652 57.6681 122.174C100.349 129.359 149.403 119.743 172.721 108.335Z" fill="url(#paint3_linear_124_2)"/>
<path d="M50.0731 122C46.6063 122 43.5368 121.249 40.8646 119.748C38.2284 118.246 36.3506 116.251 35.2311 113.76C34.9422 113.174 34.9242 112.643 35.1769 112.167C35.4658 111.655 35.9353 111.307 36.5853 111.124C37.0909 110.977 37.5784 111.032 38.0478 111.288C38.5534 111.545 38.9326 111.929 39.1854 112.442C40.0159 114.053 41.3882 115.372 43.3021 116.397C45.216 117.422 47.473 117.935 50.0731 117.935C52.9259 117.935 55.2732 117.239 57.1149 115.848C58.9927 114.419 59.9316 112.369 59.9316 109.695C59.9316 107.462 59.1191 105.539 57.4941 103.928C55.869 102.316 53.3231 101.291 49.8564 100.851C45.6313 100.339 42.3271 99.0204 39.9437 96.8964C37.5603 94.7357 36.3686 92.099 36.3686 88.9863C36.3686 86.7524 36.9464 84.8115 38.102 83.1635C39.2937 81.5156 40.9187 80.2522 42.9771 79.3733C45.0355 78.4578 47.4008 78 50.0731 78C53.0704 78 55.6343 78.6958 57.7649 80.0874C59.8955 81.4424 61.5386 83.0537 62.6942 84.9213C63.0553 85.5073 63.1636 86.0749 63.0192 86.6242C62.9108 87.1735 62.6039 87.5947 62.0983 87.8876C61.5566 88.144 60.9969 88.1806 60.4191 87.9975C59.8774 87.8144 59.4622 87.4665 59.1733 86.9538C58.3427 85.6721 57.2052 84.5551 55.7607 83.603C54.3523 82.6142 52.4384 82.1015 50.0189 82.0649C47.1661 82.0649 44.873 82.6875 43.1396 83.9326C41.4062 85.1411 40.5396 86.9172 40.5396 89.2609C40.5396 91.1286 41.2798 92.7582 42.7604 94.1498C44.2771 95.5414 46.9494 96.5119 50.7773 97.0612C55.2912 97.7203 58.6316 99.1303 60.7983 101.291C63.0011 103.415 64.1025 106.198 64.1025 109.64C64.1025 112.277 63.4706 114.529 62.2067 116.397C60.9789 118.228 59.2997 119.62 57.1691 120.572C55.0385 121.524 52.6731 122 50.0731 122Z" fill="white"/>
<path d="M85.288 121.78C82.7241 121.78 80.431 121.249 78.4087 120.187C76.3865 119.089 74.7795 117.496 73.5878 115.408C72.4322 113.321 71.8544 110.776 71.8544 107.773V93.4906C71.8544 92.9047 72.0531 92.4103 72.4503 92.0075C72.8475 91.6047 73.335 91.4032 73.9128 91.4032C74.5267 91.4032 75.0323 91.6047 75.4295 92.0075C75.8267 92.4103 76.0254 92.9047 76.0254 93.4906V107.773C76.0254 111.142 76.9462 113.65 78.7879 115.298C80.6296 116.946 82.9408 117.77 85.7214 117.77C87.4909 117.77 89.0798 117.422 90.4882 116.727C91.9326 116.031 93.0701 115.079 93.9007 113.87C94.7313 112.662 95.1466 111.288 95.1466 109.75V93.4906C95.1466 92.8681 95.3271 92.3737 95.6883 92.0075C96.0855 91.6047 96.5911 91.4032 97.205 91.4032C97.8189 91.4032 98.3244 91.6047 98.7216 92.0075C99.1189 92.3737 99.3175 92.8681 99.3175 93.4906V119.308C99.3175 119.968 99.1189 120.499 98.7216 120.901C98.3244 121.268 97.8189 121.451 97.205 121.451C96.5911 121.451 96.0855 121.268 95.6883 120.901C95.3271 120.499 95.1466 119.968 95.1466 119.308V117.441C93.9549 118.796 92.5104 119.858 90.8132 120.627C89.1159 121.396 87.2742 121.78 85.288 121.78Z" fill="white"/>
<path d="M114.132 121.451C113.12 121.451 112.452 120.993 112.127 120.077L103.677 94.3695C103.208 92.392 103.731 91.4032 105.248 91.4032C106.223 91.4032 106.909 91.9342 107.306 92.9963L114.24 114.419L120.632 93.0512C120.776 92.5751 121.011 92.1906 121.336 91.8976C121.697 91.568 122.148 91.4032 122.69 91.4032C123.737 91.4032 124.423 91.9526 124.748 93.0512L130.978 114.31L137.857 92.9963C138.218 91.9342 138.886 91.4032 139.861 91.4032C140.656 91.4032 141.197 91.7145 141.486 92.3371C141.775 92.923 141.775 93.6005 141.486 94.3695L133.036 120.077C132.747 120.993 132.097 121.451 131.086 121.451C130.617 121.451 130.183 121.323 129.786 121.066C129.425 120.81 129.19 120.48 129.082 120.077L122.582 98.2147L116.082 120.077C115.757 120.993 115.107 121.451 114.132 121.451Z" fill="white"/>
<path d="M159.508 121.725C156.727 121.725 154.236 121.066 152.033 119.748C149.83 118.393 148.079 116.562 146.779 114.255C145.515 111.948 144.883 109.347 144.883 106.454C144.883 103.525 145.533 100.906 146.833 98.5992C148.169 96.2921 149.974 94.4794 152.25 93.161C154.525 91.8061 157.089 91.1286 159.941 91.1286C162.794 91.1286 165.34 91.8061 167.579 93.161C169.854 94.4794 171.642 96.2921 172.942 98.5992C174.278 100.906 174.964 103.525 175 106.454V119.363C175 119.986 174.801 120.499 174.404 120.901C174.007 121.268 173.501 121.451 172.887 121.451C172.274 121.451 171.768 121.268 171.371 120.901C170.974 120.499 170.775 119.986 170.775 119.363V116.012C169.547 117.77 167.958 119.162 166.008 120.187C164.058 121.213 161.891 121.725 159.508 121.725ZM159.941 117.88C162.036 117.88 163.896 117.386 165.521 116.397C167.182 115.408 168.482 114.053 169.421 112.332C170.396 110.574 170.883 108.615 170.883 106.454C170.883 104.257 170.396 102.298 169.421 100.577C168.482 98.8556 167.182 97.5006 165.521 96.5119C163.896 95.4865 162.036 94.9738 159.941 94.9738C157.883 94.9738 156.023 95.4865 154.362 96.5119C152.701 97.5006 151.383 98.8556 150.408 100.577C149.433 102.298 148.945 104.257 148.945 106.454C148.945 108.615 149.433 110.574 150.408 112.332C151.383 114.053 152.701 115.408 154.362 116.397C156.023 117.386 157.883 117.88 159.941 117.88Z" fill="white"/>
<defs>
<linearGradient id="paint0_linear_124_2" x1="0.199044" y1="78.8998" x2="201.911" y2="14.4108" gradientUnits="userSpaceOnUse">
<stop stop-color="#3824CB"/>
<stop offset="0.739583" stop-color="#7E48C3"/>
<stop offset="0.791667" stop-color="#663DBD"/>
<stop offset="1" stop-color="#5234B8"/>
</linearGradient>
<linearGradient id="paint1_linear_124_2" x1="0.199044" y1="78.8998" x2="201.911" y2="14.4108" gradientUnits="userSpaceOnUse">
<stop stop-color="#3824CB"/>
<stop offset="0.739583" stop-color="#7E48C3"/>
<stop offset="0.791667" stop-color="#663DBD"/>
<stop offset="1" stop-color="#5234B8"/>
</linearGradient>
<linearGradient id="paint2_linear_124_2" x1="0.57273" y1="109.713" x2="202.885" y2="45.8406" gradientUnits="userSpaceOnUse">
<stop stop-color="#7142BF"/>
<stop offset="0.390625" stop-color="#9F2DCA"/>
<stop offset="1" stop-color="#472EB4"/>
</linearGradient>
<linearGradient id="paint3_linear_124_2" x1="-1.67192" y1="148.811" x2="215.305" y2="137.445" gradientUnits="userSpaceOnUse">
<stop stop-color="#4E32B6"/>
<stop offset="0.5" stop-color="#683DBD"/>
<stop offset="1" stop-color="#9C55DF"/>
</linearGradient>
</defs>
</svg>
