<svg width="1440" height="237" viewBox="0 0 1440 237" fill="none" xmlns="http://www.w3.org/2000/svg">
<path d="M0 228V0H1439.17C1403.22 0 1159.78 28.9385 1034.69 94.7078C904.87 162.959 914.936 184.183 709.436 193.8C578.776 199.915 488.71 174.508 377.513 208.708C246.605 248.97 107.503 237.142 0.788231 228.067L0 228Z" fill="#FBF4FF"/>
<path d="M0 203.177V0H1316.24C1283.36 0 1068.94 42.7948 995.536 86.2625C884.023 152.297 840.366 166.124 739.7 170.773C620.469 176.28 439.971 156.131 333.699 193.543C217.317 234.514 97.6934 210.989 0 203.177Z" fill="#E4BEF8" fill-opacity="0.2"/>
<path d="M0 184.46V0H1248.28C1217.09 0 1001.69 48.1153 904.218 102.77C848.608 133.953 763.229 159.977 651.193 147.568C539.156 135.159 370.493 152.532 269.708 184.46C159.335 219.425 105.103 184.46 0 184.46Z" fill="#D19EEB" fill-opacity="0.2"/>
</svg>
