<svg width="499" height="363" viewBox="0 0 499 363" fill="none" xmlns="http://www.w3.org/2000/svg">
<path d="M155.024 10.7984C70.0058 -3.98341 48.5057 -0.98291 19.0241 42.7984C-4.43807 77.6406 -8.1759 256.798 19.0241 318.798C53.0241 396.298 139.363 348.584 159.024 343.298C215.006 328.25 259.303 366.41 304.506 343.298C374.487 307.517 443.973 391.525 487.024 339.298C516.722 303.271 480.943 283.298 477.524 248.798C472.024 193.298 480.024 193.298 494.024 116.298C503.111 66.3191 493.006 39.7988 456.006 10.7989C425.006 -13.4983 329.024 10.7984 329.024 10.7984C329.024 10.7984 252.902 27.8159 155.024 10.7984Z" fill="black"/>
</svg>
