<svg width="499" height="363" viewBox="0 0 499 363" fill="none" xmlns="http://www.w3.org/2000/svg">
<path d="M155.024 352.202C70.0058 366.983 48.5057 363.983 19.0241 320.202C-4.43807 285.359 -8.1759 106.202 19.0241 44.2018C53.0241 -33.2982 139.363 14.4164 159.024 19.7017C215.006 34.7505 259.303 -3.41022 304.506 19.7017C374.487 55.4832 443.973 -28.5248 487.024 23.7017C516.722 59.7291 480.943 79.7016 477.524 114.202C472.024 169.702 480.024 169.702 494.024 246.702C503.111 296.681 493.006 323.201 456.006 352.201C425.006 376.498 329.024 352.202 329.024 352.202C329.024 352.202 252.902 335.184 155.024 352.202Z" fill="black"/>
</svg>
