<svg width="400" height="134" viewBox="0 0 400 134" fill="none" xmlns="http://www.w3.org/2000/svg">
<path fill-rule="evenodd" clip-rule="evenodd" d="M400 108.172V0H0V128.912L0.660148 128.949C90.0337 134.08 206.532 140.768 316.168 118.004C345.317 111.951 372.733 109.2 400 108.172Z" fill="#FBF4FF"/>
<path fill-rule="evenodd" clip-rule="evenodd" d="M400 96.8769V0H0V114.876C14.1671 115.641 28.8849 116.672 44.0438 117.734C116.432 122.807 198.88 128.584 279.473 109.429C312.888 101.488 355.065 98.1337 400 96.8769Z" fill="#E4BEF8" fill-opacity="0.2"/>
<path fill-rule="evenodd" clip-rule="evenodd" d="M400 83.3747V0H0V104.294C30.9111 104.294 56.5683 106.732 80.8527 109.039C125.722 113.303 165.904 117.121 225.881 104.294C272.452 94.3333 336.33 86.8783 400 83.3747Z" fill="#D19EEB" fill-opacity="0.2"/>
</svg>
