<svg width="1440" height="653" viewBox="0 0 1440 653" fill="none" xmlns="http://www.w3.org/2000/svg">
<path d="M1131 372.501C1263.96 416.976 1244.5 345.001 1334.5 222.501C1367.38 177.749 1405.31 224.86 1439.5 276.979V0C1317.53 144.035 1134.07 198.425 1097 233.501C1022.5 304.001 902.547 303.973 705.5 273.501C511.5 243.501 522.803 393.982 369 468.984C87 606.501 11.1666 470.834 0 433.001V637.501C112.5 694.501 280 562.501 384 611.984C503.307 668.75 577.018 516.711 620 452.484C666.5 383.001 717.5 363.501 852 384.001C1028.5 408.518 987.5 324.501 1131 372.501Z" fill="url(#paint0_linear_32:78)" fill-opacity="1"/>
<defs>
<linearGradient id="paint0_linear_32:78" x1="719.75" y1="652.077" x2="719.75" y2="0" gradientUnits="userSpaceOnUse">
<stop stop-color="#EFDAFA"/>
<stop offset="1" stop-color="#F7A8A1"/>
</linearGradient>
</defs>
</svg>
